<?xml version="1.0" encoding="utf-8"?>
<svg xmlns="http://www.w3.org/2000/svg" height="1024" viewBox="0 0 1024 1024" width="1024">
<path d="M493.2 454.62 c-10.7 5.43 -6.18 21.38 6.06 21.38 3.7 0 9.01 -4.09 10.54&#xA;-8.11 3.5 -9.19 -7.43 -17.92 -16.59 -13.26z M550.19 454.48 c-11 3.43 -16.11&#xA;10.7 -16.95 24.12 l-.52 8.4 -5.86 0 -5.86 0 0 7 c0 3.85 -.11 7.34 -.25 7.75&#xA;-.14 .41 2.56 .88 6 1.05 l6.25 .3 0 33.45 0 33.45 10 0 10 0 0 -33.5 0 -33.5&#xA;8.5 0 8.5 0 0 -8 0 -8 -8.5 0 -8.5 0 0 -5.05 c0 -9.63 3.35 -12.65 12.98&#xA;-11.73 l4.87 .47 1.08 -6.18 c.81 -4.68 1.23 -6.98 .74 -8.27 -.49 -1.29&#xA;-1.89 -1.56 -4.72 -2.16 -6.56 -1.41 -12.4 -1.28 -17.76 .4z M712.31 454.46&#xA;c-3.57 1.55 -6.32 6.01 -6.31 10.24 .01 10.12 13.87 14.99 20.44 7.19 4.67&#xA;-5.54 2.58 -14.73 -3.97 -17.47 -4.18 -1.75 -6.06 -1.74 -10.15 .04z M669.67&#xA;457.67 c-.37 .37 -.67 25.79 -.67 56.5 l0 55.83 10 0 10 0 0 -56.5 0 -56.5&#xA;-9.33 0 c-5.13 0 -9.63 .3 -10 .67z M746 513.46 l0 56.54 10 0 10 0 0 -13.8 0&#xA;-13.8 3.75 -3.66 3.75 -3.66 12 17.43 12 17.43 11.87 .02 11.87 .02 -1.69&#xA;-2.57 c-.93 -1.42 -8.4 -12.08 -16.62 -23.69 l-14.93 -21.12 2.33 -2.56&#xA;c17.66 -19.4 28.47 -31.93 27.96 -32.43 -.34 -.34 -5.45 -.62 -11.35 -.62&#xA;l-10.73 0 -14.86 16.64 -14.86 16.64 -.5 -31.39 -.5 -31.39 -9.75 -.29 -9.75&#xA;-.29 0 56.54z M405 514 l0 56 35 0 35 0 0 -9 0 -9 -24.5 0 -24.5 0 0 -47 0&#xA;-47 -10.5 0 -10.5 0 0 56z M604.93 487.37 c-13.28 3.58 -23.44 14.71 -26.92&#xA;29.5 -1.75 7.42 -.85 23.15 1.71 29.73 4.41 11.37 13.08 19.74 23.82 22.97&#xA;2.63 .79 8.71 1.44 13.52 1.44 12.1 0 20.17 -2.59 26.9 -8.65 5.13 -4.61 9.51&#xA;-11.44 8.77 -13.68 -.21 -.65 -4.18 -1.88 -8.81 -2.73 l-8.42 -1.56 -2.81&#xA;3.88 c-3.49 4.81 -8.28 6.9 -15.79 6.86 -11.39 -.05 -17.55 -5.62 -20.34&#xA;-18.38 l-.6 -2.75 28.94 0 c22.24 0 29.04 -.29 29.39 -1.25 .92 -2.53 -.48&#xA;-15.44 -2.35 -21.75 -3.47 -11.67 -11.85 -20.11 -23.36 -23.54 -5.91 -1.75&#xA;-17.32 -1.8 -23.64 -.1z m18.76 15.7 c4 1.52 7.29 4.81 9.43 9.43 1.8 3.9&#xA;2.87 5.77 .8 6.67 -2.07 .9 -7.27 .83 -18.02 .83 l-19.11 0 .68 -2.75 c1.33&#xA;-5.37 5.04 -10.69 9.04 -12.95 4.41 -2.5 12.34 -3.07 17.18 -1.23z M851.5&#xA;487.35 c-19.82 6.56 -30.96 26.33 -27.56 48.9 2.23 14.81 9.97 25.9 22.06&#xA;31.59 10.9 5.13 30.94 4.01 40.91 -2.28 6.26 -3.95 13.81 -13.89 12.82 -16.87&#xA;-.22 -.65 -4.18 -1.88 -8.81 -2.74 l-8.42 -1.56 -2.81 3.88 c-3.46 4.78 -8.35&#xA;6.93 -15.74 6.93 -11.02 0 -18.56 -6.5 -20.25 -17.45 l-.58 -3.75 29.07 0&#xA;29.07 0 -.46 -10.34 c-.39 -8.84 -.9 -11.26 -3.48 -16.75 -3.71 -7.89 -10.06&#xA;-14.41 -17.33 -17.78 -6.62 -3.07 -21.76 -4.02 -28.5 -1.79z m19.18 15.72&#xA;c5.4 2.05 9.35 7.06 10.77 13.68 l.7 3.25 -19.08 0 c-18.54 0 -19.08 -.06&#xA;-19.08 -2.04 0 -2.59 3.22 -8.95 5.65 -11.14 5.09 -4.6 14.41 -6.26 21.04&#xA;-3.75z M489 528.5 l0 41.5 10 0 10 0 0 -41.5 0 -41.5 -10 0 -10 0 0 41.5z&#xA;M708 528.5 l0 41.57 9.75 -.29 9.75 -.29 0 -41 0 -41 -9.75 -.29 -9.75 -.29 0&#xA;41.57z" fill="#494a4c" fill-rule="evenodd" stroke="#494a4c" stroke-linejoin="round" stroke-width="0.80"/>
<path d="M190.63 423.54 c-14.72 2.77 -28.29 10.02 -38.62 20.62 -10.35 10.63 -15.93&#xA;22.88 -18.16 39.84 -1.06 8.06 -2.12 11.36 -7.05 21.85 -3.56 7.57 -5.81&#xA;13.69 -5.81 15.8 0 6.6 3.8 10.94 11.1 12.68 2.5 .6 2.62 .97 3.25 9.74 1.38&#xA;19.49 8.42 26.88 26.41 27.73 l9.25 .43 0 10.93 c0 16.9 2.27 19.3 16.75&#xA;17.73 39.12 -4.22 73.27 -33.52 83.18 -71.39 6.31 -24.11 4.74 -48.39 -4.28&#xA;-66.15 -2.88 -5.66 -4.3 -8.48 -5.6 -9.49 -1.29 -1 -2.45 -.19 -4.78 1.43&#xA;-2.17 1.5 -5.17 4.02 -6.68 5.59 l-2.74 2.86 2.97 5.37 c5.7 10.32 6.68 14.93&#xA;6.68 31.37 -0 12.54 -.38 16.39 -2.31 23.45 -8.3 30.42 -31.65 52.54 -61.8&#xA;58.53 l-3.11 .62 -.49 -10.11 c-.77 -16 -4.23 -18.98 -21.98 -18.99 -12.69 -0&#xA;-13.78 -.78 -13.85 -9.97 -.08 -10.18 -1.65 -20.03 -3.51 -22.09 -.98 -1.08&#xA;-3.17 -2.34 -4.86 -2.79 -3.84 -1.03 -3.79 -1.39 1.82 -13.65 3.48 -7.58 4.59&#xA;-11.21 4.6 -15 .05 -12.51 4.81 -24.02 13.98 -33.83 12.95 -13.85 32.15&#xA;-19.51 50.16 -14.81 l6.66 1.74 6.62 -6.43 c3.64 -3.54 6.5 -6.54 6.34 -6.67&#xA;-1.31 -1.1 -7.45 -3.63 -12.94 -5.32 -9.16 -2.82 -21.45 -3.46 -31.2 -1.63z&#xA;M273.48 422.99 c-27.73 4.08 -51.06 23.6 -59.9 50.13 -8.03 24.11 -3.94 56.78&#xA;10.13 80.82 l2.6 4.44 2.95 -3.44 c1.62 -1.89 4.22 -5.15 5.76 -7.23 l2.81&#xA;-3.79 -2.87 -6.34 c-6.88 -15.17 -9.67 -37.07 -6.58 -51.55 4.69 -21.96 21.31&#xA;-39.69 41.71 -44.5 25.1 -5.92 50.96 7.68 60.03 31.55 1.08 2.83 2.57 9.71&#xA;3.31 15.28 1.09 8.19 2.21 11.97 5.85 19.78 l4.5 9.65 -4.15 1.58 c-5.6 2.14&#xA;-6.67 4.27 -7.25 14.43 -.58 10.2 -.83 15.24 -2.53 17.74 -1.7 2.5 -4.84 2.44&#xA;-11.19 2.45 -11.3 .01 -15.44 1.09 -19.24 5.05 -2.82 2.94 -2.96 3.52 -3.29&#xA;13.6 l-.34 10.53 -3.66 -.68 c-6.77 -1.25 -15.6 -4.62 -24.14 -9.21 l-8.48&#xA;-4.56 -5.26 5.88 c-2.9 3.24 -5.12 6.33 -4.95 6.88 .58 1.86 11.14 8.43 18.69&#xA;11.61 9.86 4.16 18.73 6.6 28.28 7.76 14.66 1.78 16.95 -.47 17.4 -17.11 l.31&#xA;-11.26 8.76 -.52 c17.77 -1.05 26.23 -9.81 26.25 -27.17 .01 -7.82 1.16 -10.4&#xA;4.99 -11.16 4.22 -.84 8.71 -5.53 9.54 -9.97 .58 -3.12 -.23 -5.55 -5.93&#xA;-17.69 -4.21 -8.96 -6.6 -15.35 -6.6 -17.58 0 -7.41 -3.15 -19.11 -7.58&#xA;-28.19 -12.55 -25.71 -41.93 -41.36 -69.94 -37.24z" fill="#6f91c2" fill-rule="evenodd" stroke="#6f91c2" stroke-linejoin="round" stroke-width="0.80"/>
<path d="M556.77 453.72 c1.8 .22 4.5 .22 6 -.01 1.5 -.23 .03 -.41 -3.27 -.4 -3.56&#xA;.01 -4.67 .17 -2.73 .41z M669.46 458.25 c-.26 .69 -.36 26.23 -.21 56.75&#xA;l.27 55.5 .24 -56.21 .24 -56.21 9.75 -.33 9.75 -.33 -9.78 -.21 c-7.06 -.15&#xA;-9.91 .14 -10.26 1.04z M755.48 457.73 l9.49 .34 .29 31.21 .29 31.21 -.02&#xA;-31.5 -.02 -31.5 -9.75 -.06 -9.75 -.06 9.49 .34z M405.24 513.75 l-.24 56.25&#xA;35.25 -.24 35.25 -.24 -34.74 -.28 -34.74 -.28 -.27 -55.74 -.27 -55.74 -.24&#xA;56.25z M425.48 505 l.02 47.5 24.75 .03 24.75 .03 -24.49 -.29 -24.49 -.29&#xA;-.27 -47.23 -.27 -47.23 .02 47.5z M533.33 480.5 c0 3.93 .18 5.34 .4 3.23&#xA;.22 -2.07 .21 -5.22 -.01 -7 -.22 -1.78 -.4 -.08 -.39 3.77z M496.25 487.73&#xA;c2.06 .22 5.44 .22 7.5 0 2.06 -.22 .38 -.39 -3.75 -.39 -4.12 0 -5.81 .18&#xA;-3.75 .39z M508 527.96 l0 40.96 -9.75 .33 -9.75 .33 10.25 .21 10.25 .21 0&#xA;-41.5 c0 -22.83 -.23 -41.5 -.5 -41.5 -.27 0 -.5 18.43 -.5 40.96z M806.9&#xA;487.75 l11.4 .32 -2.9 3.22 -2.9 3.22 3.21 -2.9 c1.77 -1.6 2.98 -3.28 2.69&#xA;-3.75 -.29 -.47 -5.56 -.75 -11.71 -.63 l-11.19 .21 11.4 .32z M727.24 528.21&#xA;l-.24 40.71 -9.75 .33 -9.75 .33 9.78 .21 c7.07 .15 9.91 -.14 10.26 -1.04&#xA;.26 -.69 .36 -19.25 .21 -41.25 l-.27 -40 -.24 40.71z M557.28 502.74 c2.63&#xA;.21 6.68 .2 9 -.01 2.32 -.21 .17 -.38 -4.78 -.38 -4.95 0 -6.85 .17 -4.22&#xA;.38z M533.24 536.25 l-.24 33.75 10.25 -.21 10.25 -.21 -9.74 -.33 -9.74 -.33&#xA;-.28 -33.21 -.28 -33.21 -.24 33.75z M871.77 520.72 c1.8 .22 4.5 .22 6 -.01&#xA;1.5 -.23 .03 -.41 -3.27 -.4 -3.56 .01 -4.67 .17 -2.73 .41z M610.25 533.75&#xA;c8.11 .17 21.39 .17 29.5 0 8.11 -.17 1.48 -.31 -14.75 -.31 -16.23 0 -22.86&#xA;.14 -14.75 .31z M857.25 533.75 c8.11 .17 21.39 .17 29.5 0 8.11 -.17 1.48&#xA;-.31 -14.75 -.31 -16.23 0 -22.86 .14 -14.75 .31z M765 555.96 l0 12.96 -9.75&#xA;.33 -9.75 .33 10.25 .21 10.25 .21 0 -13.5 c0 -7.42 -.23 -13.5 -.5 -13.5&#xA;-.27 0 -.5 5.83 -.5 12.96z M675.25 569.74 c2.61 .21 6.89 .21 9.5 0 2.61&#xA;-.21 .48 -.37 -4.75 -.37 -5.23 0 -7.36 .17 -4.75 .37z M804.28 569.74 c2.63&#xA;.21 6.68 .2 9 -.01 2.32 -.21 .17 -.38 -4.78 -.38 -4.95 0 -6.85 .17 -4.22&#xA;.38z" fill="#6f91c2" fill-rule="evenodd" stroke="none"/>
<path d="M334.1 494.5 c-.02 1.65 .61 4.12 1.4 5.5 1.76 3.08 1.76 2.77 .02 -3.5 -1.12&#xA;-4.03 -1.39 -4.42 -1.42 -2z" fill="#6b88b2" fill-rule="evenodd" stroke="none"/>
<path d="M121.94 516.14 c-1.53 3.69 -1.59 8.87 -.14 11.46 .82 1.47 .91 .96 .48 -2.84&#xA;-.29 -2.54 -.01 -6.08 .61 -7.86 .74 -2.13 .93 -3.35 .72 -3.52 -.21 -.17&#xA;-.82 .71 -1.66 2.75z" fill="#6c89b3" fill-rule="evenodd" stroke="none"/>
<path d="M214.05 531.71 c-.07 1.55 4.03 12.54 4.5 12.07 .19 -.19 -.73 -3.26 -2.05&#xA;-6.82 -1.32 -3.56 -2.42 -5.92 -2.45 -5.25z" fill="#748dae" fill-rule="evenodd" stroke="none"/>
<path d="M136.09 551.78 c-.1 2.45 2.41 9.22 3.42 9.22 .34 0 .3 -.51 -.08 -1.12 -.38&#xA;-.62 -1.27 -3.21 -1.97 -5.75 -.75 -2.73 -1.31 -3.69 -1.37 -2.35z" fill="#6f8bb3" fill-rule="evenodd" stroke="none"/>
<path d="M300.08 558.08 c-1.69 1.69 -3.08 3.53 -3.08 4.08 0 .55 1.2 -.43 2.67 -2.17&#xA;1.47 -1.74 3.61 -3.55 4.75 -4.01 1.96 -.79 1.98 -.85 .41 -.91 -.92 -.03&#xA;-3.06 1.32 -4.75 3.01z" fill="#7188aa" fill-rule="evenodd" stroke="none"/>
<path d="M249.66 578.82 c-2.17 2.39 -2.1 2.87 .59 4.31 l2.25 1.2 -1.37 -1.66 c-1.13&#xA;-1.38 -1.15 -1.93 -.11 -3.19 .92 -1.11 1.07 -1.82 .75 -1.97 -.33 -.16 -1.13&#xA;.24 -2.11 1.32z" fill="#6b84a5" fill-rule="evenodd" stroke="none"/>
</svg>